<?xml version="1.0" encoding="UTF-8"?>
<svg width="25px" height="24px" viewBox="0 0 25 24" version="1.1" xmlns="http://www.w3.org/2000/svg" xmlns:xlink="http://www.w3.org/1999/xlink">
    <!-- Generator: Sketch 52.4 (67378) - http://www.bohemiancoding.com/sketch -->
    <title>Dribbble@2x</title>
    <desc>Created with Sketch.</desc>
    <g id="Page-1" stroke="none" stroke-width="1" fill="none" fill-rule="evenodd">
        <g id="Dribbble" fill="#000000" fill-rule="nonzero">
            <g id="dribble" transform="translate(0.313253, 0.000000)">
                <path d="M22.8057521,5.97009567 C21.7127697,4.13363098 20.2302088,2.67958087 18.3576792,1.60767198 C16.4848152,0.535817768 14.4403227,0 12.2226408,0 C10.0051818,0 7.96007611,0.535817768 6.08754656,1.60767198 C4.21490553,2.67941686 2.73234463,4.13346697 1.63936219,5.97009567 C0.546323998,7.80683371 0,9.81261048 0,11.987262 C0,14.1620228 0.546491223,16.1674715 1.63919496,18.0043189 C2.73212167,19.8407836 4.21468257,21.2948337 6.0873236,22.3668519 C7.96007611,23.4386515 10.0050146,23.9745239 12.2224178,23.9745239 C14.439821,23.9745239 16.4849824,23.4386515 18.3576235,22.3668519 C20.230153,21.2952164 21.7126582,19.8407836 22.8055291,18.0043189 C23.8982329,16.1676355 24.4445011,14.1619134 24.4445011,11.987262 C24.4445569,9.8123918 23.8982329,7.80656036 22.8057521,5.97009567 Z M12.2224735,1.74817312 C14.8535356,1.74817312 17.1505936,2.60140319 19.1133131,4.30780866 L18.9143712,4.58077449 C18.8348278,4.69022323 18.6358858,4.90070159 18.3177124,5.21302961 C17.9994833,5.52508428 17.6519898,5.82183144 17.2753992,6.10272437 C16.8984741,6.38372665 16.3868771,6.70365376 15.7394378,7.0626697 C15.0922214,7.42168565 14.4026413,7.73663781 13.6704746,8.00714351 C12.4504569,5.80094761 11.1456004,3.81348519 9.75568217,2.04464692 C10.593981,1.84696128 11.4161704,1.74817312 12.2224735,1.74817312 Z M4.04260807,5.63425968 C5.06106392,4.37543508 6.30220769,3.40756264 7.76648533,2.73129841 C9.08204422,4.44820046 10.3763098,6.41499772 11.6495608,8.63130752 C8.4242369,9.4637631 5.20961544,9.88001822 2.0054734,9.87985426 C2.34516307,8.30870159 3.02415222,6.89335763 4.04260807,5.63425968 Z M2.48273349,15.6789431 C2.01584135,14.5083554 1.78245103,13.2776856 1.78245103,11.987262 C1.78245103,11.8415125 1.78791371,11.7322278 1.79839314,11.6594624 C5.63927214,11.6594624 9.20952539,11.1757449 12.5090971,10.2078178 C12.8486753,10.8529203 13.1298363,11.430451 13.3526357,11.9404647 C13.3096589,11.9612392 13.2412081,11.9845285 13.1456669,12.0106059 C13.049847,12.0366287 12.9810618,12.0546697 12.9382522,12.065221 L12.3495645,12.2681002 C11.9462179,12.4138497 11.4182329,12.6636355 10.7659997,13.0172392 C10.1135994,13.3713895 9.4213437,13.7925649 8.68923275,14.2817494 C7.9571218,14.7709886 7.20115342,15.4187153 6.4214391,16.2254214 C5.64161329,17.0317995 4.98648158,17.8978223 4.45598821,18.8238724 C3.60720997,17.8978223 2.94951414,16.8492027 2.48273349,15.6789431 Z M12.2224735,22.2265148 C9.73974005,22.2265148 7.52233686,21.4459954 5.57009674,19.8852847 L5.80883827,20.0570569 C6.18013346,19.2555991 6.72645746,18.4855216 7.44808897,17.7468793 C8.169609,17.0082369 8.86448452,16.4122278 9.53288275,15.9594533 C10.201281,15.5071162 10.927985,15.0805285 11.7132177,14.6794169 C12.4982833,14.2790706 13.0337934,14.0238724 13.3205285,13.9149704 C13.6070406,13.8057403 13.8351912,13.7196902 14.0049246,13.6571481 L14.0365858,13.6414579 L14.0686373,13.6414579 C15.108052,16.3156811 15.8510883,18.906861 16.2965199,21.414615 C14.9809053,21.9559544 13.6230942,22.2263508 12.2224735,22.2265148 Z M21.0076934,17.520492 C20.2225164,18.7120729 19.2409058,19.698205 18.0635862,20.4783417 C17.6282439,18.0851207 16.9495892,15.6447198 16.0262843,13.157959 C18.1376111,12.8350251 20.3072437,12.9861868 22.5352936,13.6102961 C22.3017918,15.0254761 21.7924802,16.3291298 21.0076934,17.520492 Z M22.5032421,11.8468155 C22.3971658,11.8261503 22.2643891,11.802533 22.1053024,11.7766743 C21.9462157,11.7508155 21.752402,11.7194351 21.5242514,11.6830251 C21.2964352,11.646615 21.0414171,11.6128838 20.7604792,11.5816128 C20.4792625,11.5503964 20.1795953,11.5218588 19.8610318,11.495836 C19.5428584,11.4697039 19.2032802,11.4490934 18.8427431,11.4333485 C18.4815929,11.4178223 18.1157604,11.4099499 17.7443537,11.4099499 C17.3733373,11.4099499 16.9830899,11.4205011 16.574838,11.4411663 C16.1664746,11.4616674 15.7713777,11.4985148 15.3894916,11.550451 C15.3574402,11.4983508 15.3177521,11.4124647 15.2700373,11.292738 C15.2223781,11.1731754 15.1875953,11.0819863 15.1670267,11.0195535 C14.9651861,10.5825239 14.7316843,10.0882005 14.4661868,9.53685649 C15.1982977,9.24530296 15.8960718,8.90984966 16.5595648,8.52994989 C17.2224446,8.15005011 17.7525478,7.812082 18.1506547,7.51555353 C18.5485944,7.21869704 18.925185,6.90390888 19.2805381,6.57102506 C19.6361142,6.23808656 19.8665502,6.0066697 19.9730167,5.87655581 C20.0792604,5.74622323 20.1799855,5.61884282 20.2753595,5.49414123 L20.2913574,5.47839636 C21.8403066,7.33060592 22.6310578,9.46365376 22.662496,11.8779772 L22.5032421,11.8468155 Z" id="Shape"></path>
            </g>
        </g>
    </g>
</svg>