<?xml version="1.0" encoding="UTF-8"?>
<svg width="24px" height="24px" viewBox="0 0 24 24" version="1.1" xmlns="http://www.w3.org/2000/svg" xmlns:xlink="http://www.w3.org/1999/xlink">
    <!-- Generator: Sketch 52.4 (67378) - http://www.bohemiancoding.com/sketch -->
    <title>Facebook@1x</title>
    <desc>Created with Sketch.</desc>
    <g id="Page-1" stroke="none" stroke-width="1" fill="none" fill-rule="evenodd">
        <g id="Facebook" fill="#010002" fill-rule="nonzero">
            <g id="fb">
                <path d="M22.452,0 L1.548,0 C0.697714286,0 0,0.699428571 0,1.548 L0,22.452 C0,23.3005714 0.697714286,24 1.548,24 L22.452,24 C23.3005714,24 24,23.3005714 24,22.452 L24,1.548 C24,0.699428571 23.3005714,0 22.452,0 Z M19.7794286,7.20171429 L17.7942857,7.20171429 C16.2377143,7.20171429 15.936,7.94228571 15.936,9.02742857 L15.936,11.4222857 L19.6491429,11.4222857 L19.1657143,15.1697143 L15.936,15.1697143 L15.936,23.8217143 L12.0651429,23.8217143 L12.0651429,15.1697143 L8.82685714,15.1697143 L8.82685714,11.4205714 L12.0651429,11.4205714 L12.0651429,8.65542857 C12.0651429,5.44628571 14.0245714,3.69942857 16.8874286,3.69942857 C18.2588571,3.69942857 19.4365714,3.80228571 19.7794286,3.84857143 L19.7794286,7.20171429 Z" id="Shape"></path>
            </g>
        </g>
    </g>
</svg>